<svg width="64" height="64" viewBox="0 0 64 64" fill="none" xmlns="http://www.w3.org/2000/svg">
<rect width="64" height="64" rx="12" fill="#202020"/>
<path d="M17.916 37.5L21.372 26.14H23.228L26.684 37.5H25.212L22.3 27.388L19.388 37.5H17.916ZM19.66 34.268L20.14 32.924H24.46L24.94 34.268H19.66ZM31.4618 37.5V28.412C31.4618 28.0707 31.3658 27.804 31.1738 27.612C30.9818 27.42 30.7151 27.324 30.3738 27.324H28.3738V26.14H30.4378C31.2164 26.14 31.8031 26.3427 32.1978 26.748C32.6031 27.1427 32.8058 27.7293 32.8058 28.508V37.5H31.4618ZM28.0538 37.5V36.316H35.7338V37.5H28.0538ZM42.7355 37.5C41.9142 37.5 41.3008 37.308 40.8955 36.924C40.4902 36.54 40.2875 35.9533 40.2875 35.164V27.036H41.6315V35.164C41.6315 35.5587 41.7222 35.852 41.9035 36.044C42.0848 36.2253 42.3622 36.316 42.7355 36.316H45.0075V37.5H42.7355ZM37.4875 30.204V29.02H45.0075V30.204H37.4875Z" fill="#999999"/>
</svg>
