<svg width="140" height="64" viewBox="0 0 140 64" fill="none" xmlns="http://www.w3.org/2000/svg">
<rect width="140" height="64" rx="12" fill="#202020"/>
<path d="M24.88 43V20.28H38.704V22.968H27.632V30.296H38.32V32.92H27.632V40.312H38.96V43H24.88ZM43.8755 43V26.04H46.3395L46.4355 30.36L46.1155 30.072C46.3288 29.0693 46.7128 28.248 47.2675 27.608C47.8435 26.9467 48.5262 26.456 49.3155 26.136C50.1048 25.816 50.9368 25.656 51.8115 25.656C53.1128 25.656 54.1902 25.944 55.0435 26.52C55.9182 27.096 56.5795 27.8747 57.0275 28.856C57.4755 29.816 57.6995 30.8933 57.6995 32.088V43H55.0115V32.856C55.0115 31.2773 54.7022 30.0827 54.0835 29.272C53.4648 28.44 52.5155 28.024 51.2355 28.024C50.3608 28.024 49.5715 28.216 48.8675 28.6C48.1635 28.9627 47.5982 29.5067 47.1715 30.232C46.7662 30.936 46.5635 31.8107 46.5635 32.856V43H43.8755ZM72.471 43C70.8283 43 69.6017 42.616 68.791 41.848C67.9803 41.08 67.575 39.9067 67.575 38.328V22.072H70.263V38.328C70.263 39.1173 70.4443 39.704 70.807 40.088C71.1697 40.4507 71.7243 40.632 72.471 40.632H77.015V43H72.471ZM61.975 28.408V26.04H77.015V28.408H61.975ZM89.4505 43.384C87.8505 43.384 86.4638 43.0213 85.2905 42.296C84.1385 41.5707 83.2425 40.5467 82.6025 39.224C81.9838 37.88 81.6745 36.312 81.6745 34.52C81.6745 32.728 81.9838 31.1707 82.6025 29.848C83.2425 28.5253 84.1278 27.5013 85.2585 26.776C86.4105 26.0293 87.7652 25.656 89.3225 25.656C90.7945 25.656 92.0958 26.008 93.2265 26.712C94.3572 27.3947 95.2425 28.3973 95.8825 29.72C96.5225 31.0427 96.8425 32.6533 96.8425 34.552V35.352H84.4905C84.5972 37.1653 85.0772 38.5307 85.9305 39.448C86.8052 40.3653 87.9785 40.824 89.4505 40.824C90.5598 40.824 91.4665 40.568 92.1705 40.056C92.8958 39.5227 93.3972 38.8293 93.6745 37.976L96.5545 38.2C96.1065 39.7147 95.2532 40.9627 93.9945 41.944C92.7572 42.904 91.2425 43.384 89.4505 43.384ZM84.4905 32.984H93.8985C93.7705 31.3413 93.2905 30.136 92.4585 29.368C91.6265 28.6 90.5812 28.216 89.3225 28.216C88.0212 28.216 86.9438 28.6213 86.0905 29.432C85.2585 30.2213 84.7252 31.4053 84.4905 32.984ZM106.046 43V26.04H108.286L108.542 30.328L108.286 30.264C108.499 28.8133 108.958 27.7467 109.662 27.064C110.387 26.3813 111.347 26.04 112.542 26.04H116.03V28.472H112.574C111.742 28.472 111.038 28.6427 110.462 28.984C109.907 29.304 109.481 29.784 109.182 30.424C108.883 31.0427 108.734 31.8213 108.734 32.76V43H106.046ZM101.63 43V40.632H114.11V43H101.63ZM101.63 28.408V26.04H107.518V28.408H101.63Z" fill="#999999"/>
</svg>
